<svg width="600" height="600" viewBox="0 0 600 600" fill="none" xmlns="http://www.w3.org/2000/svg">
<rect width="600" height="600" fill="#E5E5E5"/>
<rect width="600" height="600" fill="white"/>
<path d="M0 0H600V600H0V0Z" fill="#AFAFAF"/>
<path d="M179 478V122H295.238C333.821 122 362.8 129.987 382.173 145.962C401.708 161.936 411.476 185.571 411.476 216.868C411.476 233.495 406.755 248.246 397.313 261.124C387.871 273.838 375.009 283.7 358.73 290.709C377.94 296.088 393.08 306.357 404.15 321.516C415.383 336.513 421 354.443 421 375.308C421 407.256 410.662 432.359 389.987 450.615C369.311 468.872 340.089 478 302.32 478H179ZM225.886 311.492V439.613H303.297C325.112 439.613 342.287 433.989 354.822 422.742C367.521 411.332 373.87 395.683 373.87 375.797C373.87 332.927 350.59 311.492 304.029 311.492H225.886ZM225.886 273.838H296.703C317.216 273.838 333.577 268.703 345.787 258.434C358.16 248.165 364.346 234.228 364.346 216.624C364.346 197.063 358.648 182.882 347.252 174.08C335.856 165.114 318.518 160.632 295.238 160.632H225.886V273.838Z" fill="white"/>
</svg>
